<svg xmlns="http://www.w3.org/2000/svg" viewBox="5155.04 1392.5 28.339 28.782"><defs><style>.a{fill:#babf10;stroke:#babf10;stroke-miterlimit:10;}</style></defs><g transform="translate(4050 1050)"><path class="a" d="M25.255,4.327a.524.524,0,0,0,.555-.555V1.555a.555.555,0,0,0-1.109,0V3.773A.524.524,0,0,0,25.255,4.327Z" transform="translate(1093.983 342)"/><path class="a" d="M9.675,10.451a.536.536,0,0,0,.776,0,.536.536,0,0,0,0-.776L8.843,8.066a.549.549,0,0,0-.776.776Z" transform="translate(1101.466 338.926)"/><path class="a" d="M39.443,38.666a.549.549,0,0,0-.776.776L40.219,41A.536.536,0,0,0,41,41a.536.536,0,0,0,0-.776Z" transform="translate(1087.835 325.295)"/><g transform="translate(12)"><path class="a" d="M27.137,17.81a8.029,8.029,0,0,0-6.377-6.544,8.341,8.341,0,0,0-1.608-.166A8.165,8.165,0,0,0,11,19.252,7.931,7.931,0,0,0,12.109,23.3c.277.444,1.22,1.664,2.828,3.6l.166.166a4.407,4.407,0,0,1,1,2.828v.277a3.105,3.105,0,0,0,6.211,0V29.9a4.3,4.3,0,0,1,1-2.828c.111-.111.166-.166.166-.222h0a33.037,33.037,0,0,0,2.828-3.6A8.667,8.667,0,0,0,27.137,17.81ZM21.093,30.121a2,2,0,1,1-3.993,0V29.9a8.273,8.273,0,0,0-.111-1.165,5.987,5.987,0,0,0,2.107.444,5.987,5.987,0,0,0,2.107-.444,8.274,8.274,0,0,0-.111,1.165Zm4.1-7.431a43.227,43.227,0,0,1-2.828,3.549.054.054,0,0,1-.055.055c-.166.166-.444.555-.887,1a3.882,3.882,0,0,1-4.658,0,5.612,5.612,0,0,1-.887-1,.054.054,0,0,0-.055-.055C14.272,24.354,13.274,23.078,13,22.69a7.022,7.022,0,0,1,6.1-10.536,11.674,11.674,0,0,1,1.386.111,6.974,6.974,0,0,1,5.49,5.656A6.692,6.692,0,0,1,25.2,22.69Z" transform="translate(1088.085 337.501)"/><path class="a" d="M3.773,24.7H1.555a.555.555,0,0,0,0,1.109H3.773a.555.555,0,0,0,0-1.109Z" transform="translate(1092.54 331.443)"/><path class="a" d="M47.073,24.7H44.855a.555.555,0,1,0,0,1.109h2.218a.555.555,0,0,0,0-1.109Z" transform="translate(1073.252 331.443)"/></g><path class="a" d="M9.719,38.666,8.166,40.219a.536.536,0,0,0,0,.776.536.536,0,0,0,.776,0L10.5,39.443a.549.549,0,0,0-.776-.776Z" transform="translate(1101.422 325.295)"/><path class="a" d="M40.319,8.066,38.766,9.619a.536.536,0,0,0,0,.776.536.536,0,0,0,.776,0L41.1,8.843a.549.549,0,0,0-.776-.776Z" transform="translate(1087.791 338.926)"/></g></svg>